<?xml version="1.0" encoding="UTF-8" standalone="no"?>
<!-- Created with Inkscape (http://www.inkscape.org/) -->

<svg
   xmlns:dc="http://purl.org/dc/elements/1.1/"
   xmlns:cc="http://creativecommons.org/ns#"
   xmlns:rdf="http://www.w3.org/1999/02/22-rdf-syntax-ns#"
   xmlns:svg="http://www.w3.org/2000/svg"
   xmlns="http://www.w3.org/2000/svg"
   xmlns:sodipodi="http://sodipodi.sourceforge.net/DTD/sodipodi-0.dtd"
   xmlns:inkscape="http://www.inkscape.org/namespaces/inkscape"
   version="1.1"
   id="svg2"
   width="100"
   height="100"
   viewBox="0 0 100 100"
   sodipodi:docname="icon.svg"
   inkscape:version="0.92.3 (2405546, 2018-03-11)">
  <metadata
     id="metadata8">
    <rdf:RDF>
      <cc:Work
         rdf:about="">
        <dc:format>image/svg+xml</dc:format>
        <dc:type
           rdf:resource="http://purl.org/dc/dcmitype/StillImage" />
        <dc:title></dc:title>
      </cc:Work>
    </rdf:RDF>
  </metadata>
  <defs
     id="defs6" />
  <sodipodi:namedview
     pagecolor="#ffffff"
     bordercolor="#666666"
     borderopacity="1"
     objecttolerance="10"
     gridtolerance="10"
     guidetolerance="10"
     inkscape:pageopacity="0"
     inkscape:pageshadow="2"
     inkscape:window-width="1920"
     inkscape:window-height="1001"
     id="namedview4"
     showgrid="false"
     inkscape:zoom="4.4528302"
     inkscape:cx="-2.6621451"
     inkscape:cy="25.000703"
     inkscape:window-x="-9"
     inkscape:window-y="-9"
     inkscape:window-maximized="1"
     inkscape:current-layer="svg2"
     fit-margin-top="0"
     fit-margin-left="0"
     fit-margin-right="0"
     fit-margin-bottom="0" />
  <circle
     id="path3715"
     cx="50"
     cy="50"
     r="50"
     style="fill:#0086d5;fill-opacity:1;stroke-width:1.00756049" />
  <path
     style="fill:#ffffff;stroke:#ffffff;stroke-width:2;stroke-miterlimit:4;stroke-dasharray:none"
     d="M 68.605218,85.309839 C 62.411224,78.701412 57.282878,70.862252 52.773687,61.109885 51.984909,59.403934 51.231207,57.775524 51.098781,57.491201 50.807046,56.864778 50.846332,56.799234 49.897898,59.4944 46.616463,68.819234 42.174242,76.501252 36.886,81.99613 c -2.341368,2.432858 -3.910687,3.504091 -4.790591,3.270119 -0.346196,-0.09205 -0.864271,-0.833516 -0.863651,-1.23602 9.31e-4,-0.564612 0.936417,-2.728881 1.942366,-4.493422 1.203376,-2.110866 1.884708,-3.182252 4.455885,-7.006864 4.535768,-6.746913 7.255168,-12.420803 8.601521,-17.946615 0.726112,-2.980178 0.856569,-4.256747 1.017012,-9.951383 0.203961,-7.238968 -0.04899,-14.612908 -0.65783,-19.175618 l -0.118513,-0.888336 -1.181379,0.08386 c -2.878721,0.204373 -6.42367,1.238128 -9.28229,2.706839 -2.17748,1.118758 -4.808165,3.016715 -6.990486,5.043432 -2.243019,2.083093 -4.411747,3.836425 -7.328742,5.925027 -2.190213,1.568209 -2.734316,1.800554 -3.679603,1.571276 -0.439027,-0.106487 -0.492227,-0.191704 -0.543123,-0.870045 -0.09276,-1.236012 0.249945,-1.999708 1.670481,-3.722638 5.059719,-6.13681 10.880187,-10.740623 16.612322,-13.139845 1.937919,-0.811126 3.187554,-1.206557 5.621562,-1.778876 2.1559,-0.506927 3.239693,-0.919382 3.950306,-1.503369 1.015572,-0.834592 1.087239,-1.098226 1.11621,-4.105864 0.04948,-5.140577 1.188963,-7.622465 3.500513,-7.624603 2.31986,-0.0021 3.147696,2.008397 3.195517,7.760831 l 0.02742,3.302579 0.506127,0.598449 c 0.594058,0.702429 0.991547,0.912982 3.115793,1.65045 10.361386,3.597146 18.814292,9.539942 23.8107,16.74005 0.944273,1.360759 1.030616,1.556729 0.923815,2.096721 -0.144983,0.732941 -0.533393,1.164477 -1.143652,1.270609 -0.922995,0.160524 -1.34133,-0.0417 -2.499455,-1.208238 -3.535646,-3.56132 -11.39831,-9.909733 -14.150881,-11.4256 -3.088,-1.700587 -6.970204,-2.906395 -10.557537,-3.279168 l -0.85918,-0.08928 0.0023,5.410394 c 0.0023,8.794998 0.453012,17.755244 1.029757,20.501252 0.549873,2.618075 2.006164,6.101291 4.416279,10.563029 3.131745,5.797656 8.554044,14.128837 13.0612,20.068061 0.720132,0.948964 0.767752,1.080624 0.849082,2.347587 0.137967,2.150535 -0.212701,2.785899 -1.537668,2.785899 -0.594035,0 -0.711555,-0.07235 -1.521954,-0.936974 z m 6.26887,-17.376628 C 73.671715,67.630046 70.322818,63.9136 67.214766,59.433292 63.572527,54.182937 61.505723,49.625382 60.619179,44.889149 60.148843,42.3765 59.904393,38.303523 60.115077,36.489904 c 0.230634,-1.985313 0.446303,-2.514911 1.251331,-3.072747 0.628347,-0.43541 0.628549,-0.435444 1.181641,-0.209046 0.69868,0.28599 1.414692,1.198636 1.66216,2.118644 0.105154,0.390948 0.239347,1.728569 0.298197,2.972491 0.243568,5.148376 1.593557,10.030878 3.90632,14.127958 0.448722,0.794921 2.475345,3.742529 4.503589,6.550242 2.028244,2.807712 3.800611,5.395717 3.938578,5.751124 0.344063,0.886301 0.32852,2.434862 -0.02933,2.914289 -0.240704,0.322554 -0.391563,0.379728 -0.979162,0.371095 -0.382035,-0.0056 -0.820498,-0.04196 -0.974378,-0.08073 z m -52.413272,-1.53295 c -0.373774,-0.681235 -0.199228,-1.560887 0.631818,-3.184085 1.440206,-2.813026 2.288098,-3.993595 5.588918,-7.781786 2.385972,-2.738251 4.587929,-6.660458 5.629242,-10.027012 0.868479,-2.807772 0.828003,-7.199418 -0.09681,-10.505352 -0.3898,-1.39339 -0.322745,-1.670487 0.534361,-2.207977 0.837864,-0.525428 2.31372,0.256608 3.459439,1.833114 1.226732,1.687977 1.747454,3.522119 1.914837,6.744576 0.09657,1.860261 0.0589,2.322139 -0.295682,3.618684 -1.807235,6.608441 -5.538009,12.551794 -11.073706,17.641087 -1.212795,1.114995 -4.248682,3.605405 -4.84454,3.974092 -0.550731,0.340763 -1.230226,0.291326 -1.447861,-0.105341 z"
     id="path827"
     inkscape:connector-curvature="0" />
</svg>
