<?xml version="1.0" encoding="UTF-8" standalone="no"?>
<!-- Created with Inkscape (http://www.inkscape.org/) -->

<svg
   xmlns:dc="http://purl.org/dc/elements/1.1/"
   xmlns:cc="http://creativecommons.org/ns#"
   xmlns:rdf="http://www.w3.org/1999/02/22-rdf-syntax-ns#"
   xmlns:svg="http://www.w3.org/2000/svg"
   xmlns="http://www.w3.org/2000/svg"
   xmlns:sodipodi="http://sodipodi.sourceforge.net/DTD/sodipodi-0.dtd"
   xmlns:inkscape="http://www.inkscape.org/namespaces/inkscape"
   version="1.1"
   id="svg2"
   width="109"
   height="106"
   viewBox="0 0 109 106"
   sodipodi:docname="icon.svg"
   inkscape:version="0.92.3 (2405546, 2018-03-11)">
  <metadata
     id="metadata8">
    <rdf:RDF>
      <cc:Work
         rdf:about="">
        <dc:format>image/svg+xml</dc:format>
        <dc:type
           rdf:resource="http://purl.org/dc/dcmitype/StillImage" />
        <dc:title />
      </cc:Work>
    </rdf:RDF>
  </metadata>
  <defs
     id="defs6" />
  <sodipodi:namedview
     pagecolor="#ffffff"
     bordercolor="#666666"
     borderopacity="1"
     objecttolerance="10"
     gridtolerance="10"
     guidetolerance="10"
     inkscape:pageopacity="0"
     inkscape:pageshadow="2"
     inkscape:window-width="1920"
     inkscape:window-height="1001"
     id="namedview4"
     showgrid="false"
     inkscape:zoom="4.4528302"
     inkscape:cx="70.004238"
     inkscape:cy="24.588693"
     inkscape:window-x="-9"
     inkscape:window-y="-9"
     inkscape:window-maximized="1"
     inkscape:current-layer="svg2" />
  <circle
     id="path3715"
     cx="54.071198"
     cy="53.928806"
     r="52.483204"
     style="fill:#0086d5;fill-opacity:1;stroke-width:1.05760002" />
  <path
     style="fill:#ffffff;stroke:#ffffff;stroke-width:3.24697375;stroke-miterlimit:4;stroke-dasharray:none"
     d="M 72.369712,97.547333 C 66.022242,89.697614 60.766825,80.385989 56.145904,68.80179 c -0.808323,-2.026388 -1.580701,-3.960668 -1.716408,-4.298398 -0.298963,-0.744087 -0.258704,-0.821942 -1.230639,2.37947 -3.362742,11.07636 -7.915034,20.201327 -13.334309,26.728333 -2.399384,2.889832 -4.007587,4.16228 -4.909293,3.884359 -0.354775,-0.109344 -0.885687,-0.990077 -0.885051,-1.468186 9.53e-4,-0.670666 0.959619,-3.241459 1.990494,-5.337442 1.233194,-2.50736 1.931407,-3.77999 4.566293,-8.322996 4.648157,-8.014217 7.434938,-14.753859 8.814652,-21.31761 0.744104,-3.539958 0.877794,-5.056311 1.042212,-11.820596 0.209015,-8.598697 -0.05021,-17.357718 -0.674131,-22.777462 l -0.121448,-1.055197 -1.210652,0.09962 c -2.950051,0.24276 -6.582837,1.47069 -9.512289,3.215276 -2.231434,1.328899 -4.927302,3.583358 -7.163697,5.990762 -2.298598,2.47437 -4.521063,4.55704 -7.510336,7.037952 -2.244483,1.862774 -2.802067,2.13876 -3.770776,1.866416 -0.449906,-0.126488 -0.504424,-0.227713 -0.556582,-1.033469 -0.09506,-1.468177 0.256139,-2.375322 1.711873,-4.421878 5.18509,-7.289515 11.149779,-12.758083 17.023946,-15.607962 1.985937,-0.963483 3.266536,-1.43319 5.760855,-2.113011 2.209319,-0.602144 3.319966,-1.092074 4.048187,-1.785752 1.040736,-0.991359 1.114179,-1.304512 1.143868,-4.877089 0.05071,-6.1061533 1.218423,-9.054226 3.587249,-9.0567664 2.377342,-0.00255 3.225691,2.3856439 3.274697,9.2185844 l 0.0281,3.922917 0.518669,0.710858 c 0.608777,0.83437 1.016115,1.084472 3.192996,1.960461 10.618122,4.272815 19.280475,11.331873 24.400687,19.884411 0.967671,1.616356 1.056154,1.849136 0.946704,2.490558 -0.14857,0.870612 -0.546611,1.383205 -1.171993,1.509273 C 83.483921,44.597902 83.055225,44.357696 81.8684,42.972039 78.245147,38.741776 70.187663,31.200912 67.366889,29.400313 64.202373,27.380297 60.223976,25.947995 56.547755,25.505204 l -0.88047,-0.106049 0.0024,6.426651 c 0.0024,10.447004 0.464237,21.090294 1.055274,24.352096 0.563497,3.10984 2.055872,7.247325 4.525706,12.547131 3.209344,6.886657 8.765998,16.782721 13.38483,23.837537 0.737983,1.127214 0.786783,1.283603 0.870123,2.788545 0.141387,2.554481 -0.217971,3.309188 -1.575765,3.309188 -0.608753,0 -0.729186,-0.08594 -1.559673,-1.11297 z M 78.793909,76.906772 C 77.561753,76.546663 74.12987,72.132139 70.944803,66.810275 67.212319,60.573722 65.094305,55.160101 64.185793,49.534239 c -0.48199,-2.984611 -0.732497,-7.822634 -0.516592,-9.976913 0.236348,-2.358224 0.45736,-2.987299 1.282335,-3.649916 0.643918,-0.517194 0.644125,-0.517235 1.210921,-0.248312 0.715991,0.339709 1.449746,1.423782 1.703345,2.5166 0.10776,0.464381 0.245278,2.053253 0.305586,3.530827 0.249603,6.115418 1.633043,11.915024 4.003115,16.781677 0.459839,0.944234 2.536678,4.445505 4.615179,7.780603 2.0785,3.335098 3.894778,6.40922 4.036165,6.831384 0.352589,1.052779 0.336656,2.892214 -0.03006,3.461694 -0.246671,0.38314 -0.401266,0.451053 -1.003421,0.440799 -0.391503,-0.0067 -0.840835,-0.04983 -0.998521,-0.0959 z M 25.081933,75.085881 c -0.383036,-0.809193 -0.204164,-1.854074 0.647472,-3.782165 1.475893,-3.34141 2.344794,-4.743731 5.727402,-9.243475 2.445093,-3.252589 4.70161,-7.911522 5.768725,-11.910432 0.889999,-3.335168 0.84852,-8.551717 -0.09921,-12.47862 -0.399458,-1.655117 -0.330743,-1.984262 0.547601,-2.622711 0.858625,-0.624122 2.37105,0.304807 3.545158,2.177436 1.257128,2.005038 1.790753,4.183695 1.962283,8.01144 0.09897,2.209682 0.06036,2.758317 -0.303008,4.298399 -1.852015,7.849735 -5.675231,14.909455 -11.348093,20.954693 -1.242847,1.324429 -4.353957,4.282626 -4.964579,4.720564 -0.564377,0.404771 -1.260709,0.346047 -1.483737,-0.125129 z"
     id="path827"
     inkscape:connector-curvature="0" />
</svg>
